<?xml version="1.0" standalone="no"?>
<!DOCTYPE svg PUBLIC "-//W3C//DTD SVG 20010904//EN"
 "http://www.w3.org/TR/2001/REC-SVG-20010904/DTD/svg10.dtd">
<svg version="1.0" xmlns="http://www.w3.org/2000/svg"
 width="500.000000pt" height="500.000000pt" viewBox="0 0 500.000000 500.000000"
 preserveAspectRatio="xMidYMid meet">
<metadata>
Created by potrace 1.14, written by Peter Selinger 2001-2017
</metadata>
<g transform="translate(0.000000,500.000000) scale(0.100000,-0.100000)"
fill="#000000" stroke="none">
<path d="M2055 4251 c-3 -2 -5 -187 -5 -410 l0 -406 -958 1 c-578 1 -967 -2
-982 -8 -33 -12 -68 -46 -87 -83 -13 -24 -16 -81 -15 -360 0 -181 1 -348 1
-370 1 -57 44 -120 96 -141 36 -15 132 -16 960 -16 506 1 935 1 953 1 l32 1 1
208 c1 185 2 202 13 157 7 -28 16 -57 21 -65 6 -8 10 -17 10 -20 2 -17 40 -74
80 -118 56 -63 123 -109 189 -132 28 -9 52 -22 54 -30 3 -7 0 -10 -6 -6 -6 3
-89 7 -184 7 l-173 1 -3 -858 -2 -859 30 -1 c19 -1 27 3 23 10 -4 6 0 6 9 -1
8 -7 18 -10 22 -6 10 10 46 11 40 1 -6 -9 32 -5 41 4 4 3 19 3 35 -2 18 -5 32
-4 40 3 10 9 11 9 6 -1 -5 -8 0 -11 16 -8 13 3 23 5 23 6 0 5 47 6 50 0 5 -8
48 -5 65 5 9 5 11 4 6 -3 -5 -8 0 -11 16 -8 13 3 23 5 23 6 0 5 47 6 50 0 5
-8 48 -5 65 5 9 5 11 4 6 -3 -5 -8 0 -11 16 -8 13 3 23 5 23 6 0 5 47 6 50 0
5 -8 48 -5 65 5 9 5 11 4 6 -3 -5 -8 0 -11 16 -8 13 3 24 5 26 6 3 3 41 3 45
0 1 -1 12 -3 25 -6 17 -3 21 -1 16 8 -6 10 -4 10 8 0 11 -9 18 -10 23 -2 4 7
12 7 26 0 10 -6 19 -7 18 -3 -1 4 0 10 1 13 1 3 2 203 3 445 l2 440 455 2
c564 1 657 6 839 39 199 37 348 107 451 213 63 65 83 91 111 142 13 24 26 46
29 49 15 15 75 205 83 267 4 23 9 52 12 65 36 156 42 779 9 952 -2 12 -8 46
-14 76 -6 30 -15 73 -22 95 -111 403 -351 612 -783 679 -81 13 -123 18 -155
20 -20 1 -42 6 -49 11 -10 6 -12 4 -6 -5 6 -10 4 -11 -6 -4 -14 9 -1875 15
-1884 5z m334 -836 c-97 -35 -125 -52 -193 -119 -64 -63 -119 -157 -131 -226
-3 -19 -8 -36 -11 -39 -2 -2 -4 86 -4 196 0 110 2 202 5 205 3 2 93 5 201 5
l197 1 -64 -23z m1441 1 c119 -34 180 -112 198 -251 10 -73 8 -417 -2 -470
-12 -57 -39 -120 -64 -147 -24 -26 -80 -59 -112 -65 -8 -2 -28 -6 -45 -9 -16
-3 -280 -8 -585 -10 -305 -2 -563 -5 -573 -8 -9 -2 -15 0 -12 4 3 5 20 12 38
16 17 4 34 9 37 10 3 1 15 5 28 9 12 4 22 12 22 18 0 6 3 7 6 4 10 -10 90 52
140 107 195 214 154 565 -86 725 -61 41 -72 47 -145 71 -48 16 -22 17 525 14
490 -1 583 -4 630 -18z"/>
</g>
</svg>
