<svg width="15" height="14" xmlns="http://www.w3.org/2000/svg"><g fill="#B8E12A" fill-rule="nonzero"><path d="M14.2 12.674H5.395C5.153 13.444 4.473 14 3.674 14c-.8 0-1.48-.556-1.722-1.326H.578c-.32 0-.578-.277-.578-.618 0-.342.259-.62.578-.62h1.374c.242-.769.922-1.325 1.722-1.325.8 0 1.48.556 1.721 1.326H14.2c.319 0 .578.277.578.619 0 .341-.259.618-.578.618zM3.674 11.35c-.364 0-.66.317-.66.707 0 .39.296.706.66.706.364 0 .66-.317.66-.706 0-.39-.296-.707-.66-.707zM14.2 8.008h-1.375c-.242.77-.922 1.325-1.721 1.325-.8 0-1.48-.556-1.722-1.325H.578c-.32 0-.578-.277-.578-.62 0-.34.259-.618.578-.618h8.804c.242-.77.922-1.326 1.722-1.326.8 0 1.48.556 1.721 1.326H14.2c.319 0 .578.277.578.619 0 .342-.259.619-.578.619zm-3.096-1.326c-.364 0-.66.317-.66.707 0 .39.296.707.66.707.364 0 .66-.317.66-.707 0-.39-.296-.707-.66-.707zM14.2 2.563H7.872c-.242.77-.922 1.326-1.721 1.326-.8 0-1.48-.556-1.722-1.326H.579c-.32 0-.579-.277-.579-.619 0-.341.259-.618.578-.618H4.43C4.671.556 5.351 0 6.151 0 6.95 0 7.63.556 7.872 1.326H14.2c.319 0 .578.277.578.618 0 .342-.259.62-.578.62zM6.15 1.238c-.364 0-.66.317-.66.706 0 .39.296.707.66.707.365 0 .66-.317.66-.707 0-.39-.295-.706-.66-.706z"/></g></svg>