<svg id="Layer_1" data-name="Layer 1" xmlns="http://www.w3.org/2000/svg" width="200" height="43" viewBox="0 0 200 43"><defs><style>.cls-1{fill:#706f73}.cls-2{fill:#a4a4a8}.cls-3{fill:#abcf37}</style></defs><title>Artboard 1</title><path class="cls-1" d="M.23 21.57V.17H11a11.22 11.22 0 0 1 3.38.44A5.12 5.12 0 0 1 16.62 2a5.68 5.68 0 0 1 1.27 2.44 14 14 0 0 1 .4 3.56 20.29 20.29 0 0 1-.3 3.79 5.36 5.36 0 0 1-1.11 2.5 4.5 4.5 0 0 1-2.24 1.37 13.41 13.41 0 0 1-3.65.41H5.94v5.48zm9.62-10.44A8.68 8.68 0 0 0 11.2 11a1.32 1.32 0 0 0 .77-.41 1.77 1.77 0 0 0 .36-.93A12.44 12.44 0 0 0 12.41 8a9.37 9.37 0 0 0-.09-1.38 1.79 1.79 0 0 0-.32-.87 1.51 1.51 0 0 0-.79-.47 5.16 5.16 0 0 0-1.34-.14H5.94v6zM24.91 17.89l-1.06 3.68h-5.93L24.34.17H33l6.51 21.4H33.7l-1.11-3.68zm3.88-13.44h-.06l-2.6 9.27h5.31zM40.8.17h11a18.51 18.51 0 0 1 3.24.3 5.46 5.46 0 0 1 2.3 1 4.2 4.2 0 0 1 1.37 2 9.7 9.7 0 0 1 .46 3.25q0 1.34-.06 2.41a5 5 0 0 1-.44 1.88 3.5 3.5 0 0 1-1.21 1.38 6.81 6.81 0 0 1-2.34.91v.23a4.21 4.21 0 0 1 2.81 1 3.59 3.59 0 0 1 1 2.78v4.31h-5.66v-3a2.91 2.91 0 0 0-.5-1.94 2.15 2.15 0 0 0-1.84-.74h-4.42v5.68H40.8zm10.13 10.76a4.08 4.08 0 0 0 1.4-.19 1.26 1.26 0 0 0 .7-.59 2.41 2.41 0 0 0 .24-1V7.61a2.88 2.88 0 0 0-.49-1.94 2.59 2.59 0 0 0-1.88-.51h-4.39v5.79zM72.05 21.57h-5.71V5.14h-5.48V.17h16.95v4.97h-5.76v16.43zM85.26 21.57h-5.71V.17h9.65l6.13 16.44h.23L95.22.17h5.7v21.4h-9.73L85.14 5.14h-.22l.34 16.43zM110.2 8.76h9.13v3.96h-9.13v4.17h9.93v4.68h-15.64V.17h15.44v4.68h-9.73v3.91zM123.64.17h11a18.49 18.49 0 0 1 3.24.3 5.46 5.46 0 0 1 2.3 1 4.2 4.2 0 0 1 1.37 2 9.71 9.71 0 0 1 .45 3.18v2.41a5 5 0 0 1-.44 1.88 3.5 3.5 0 0 1-1.21 1.38 6.81 6.81 0 0 1-2.34.91v.23a4.2 4.2 0 0 1 2.81 1 3.59 3.59 0 0 1 1 2.78v4.31h-5.71v-3a2.91 2.91 0 0 0-.5-1.94 2.15 2.15 0 0 0-1.84-.74h-4.42v5.68h-5.71zm10.13 10.76a4.09 4.09 0 0 0 1.4-.19 1.27 1.27 0 0 0 .7-.59 2.41 2.41 0 0 0 .24-1V7.61a2.87 2.87 0 0 0-.49-1.94 2.59 2.59 0 0 0-1.88-.51h-4.42v5.79zM154.66 8.56a34.07 34.07 0 0 1 3.92.47A6.12 6.12 0 0 1 161 10a3.31 3.31 0 0 1 1.23 1.78 10.6 10.6 0 0 1 .34 3v1.76a5.74 5.74 0 0 1-.29 1.64 4.55 4.55 0 0 1-.8 1.44 4.38 4.38 0 0 1-1.57 1.16 10.22 10.22 0 0 1-2.64.76 24.34 24.34 0 0 1-4 .27q-2.06 0-3.72-.13a6.66 6.66 0 0 1-2.85-.81 4.52 4.52 0 0 1-1.84-2.13 10.08 10.08 0 0 1-.66-4.07h5.48a4.06 4.06 0 0 0 .17 1.31 1.39 1.39 0 0 0 .59.74 2.59 2.59 0 0 0 1.1.33 17.36 17.36 0 0 0 1.74.07q1 0 1.68-.06a3.13 3.13 0 0 0 1.1-.26 1.24 1.24 0 0 0 .6-.58 2.53 2.53 0 0 0 .19-1.07 5.19 5.19 0 0 0-.09-1.07.84.84 0 0 0-.4-.57 2.25 2.25 0 0 0-.91-.24c-.4 0-.93-.08-1.6-.11l-1.22-.16q-2-.14-3.52-.31a6.89 6.89 0 0 1-2.62-.77 3.9 3.9 0 0 1-1.64-1.84 8.77 8.77 0 0 1-.57-3.55 8.44 8.44 0 0 1 .63-3.61 4.32 4.32 0 0 1 1.8-2 7.13 7.13 0 0 1 2.84-.81Q151.2 0 153.31 0q1.74 0 3.33.1a7.41 7.41 0 0 1 2.77.67 4.31 4.31 0 0 1 1.88 1.78A7 7 0 0 1 162 6v.89h-5.48a3.41 3.41 0 0 0-.19-1.27 1.3 1.3 0 0 0-.57-.66 2.24 2.24 0 0 0-1-.24h-1.46a11.38 11.38 0 0 0-1.83.11 2.66 2.66 0 0 0-1 .34 1 1 0 0 0-.43.57 3.32 3.32 0 0 0-.09.8 2.58 2.58 0 0 0 .16 1 1.08 1.08 0 0 0 .46.53 2.16 2.16 0 0 0 .73.24 8.74 8.74 0 0 0 1 .1z"/><path class="cls-2" d="M17.11 35.4v2.17a6.89 6.89 0 0 1-.23 1.43 5.52 5.52 0 0 1-.54 1.35 4.48 4.48 0 0 1-1 1.19 5.4 5.4 0 0 1-1.4.84 8 8 0 0 1-1.5.43 9.65 9.65 0 0 1-1.59.16h-1.7q-2 0-3.67-.16A6.86 6.86 0 0 1 2.59 42a4.8 4.8 0 0 1-1.9-2.25A10.28 10.28 0 0 1 0 35.56v-5.08a10.17 10.17 0 0 1 .62-3.9 4.9 4.9 0 0 1 1.81-2.25 7 7 0 0 1 2.88-1A26.61 26.61 0 0 1 9.15 23a28.62 28.62 0 0 1 3.47.18 5.56 5.56 0 0 1 2.45.84A4 4 0 0 1 16.54 26a10.72 10.72 0 0 1 .54 3.48v.76h-5.34v-.76a2.43 2.43 0 0 0-.32-1 1.5 1.5 0 0 0-.66-.56 3.12 3.12 0 0 0-1-.24q-.56-.05-1.21-.05a6.73 6.73 0 0 0-1.76.18 1.77 1.77 0 0 0-1 .62 2.39 2.39 0 0 0-.42 1.15 14.47 14.47 0 0 0-.09 1.77v3.07q0 1.1.06 1.87a2.63 2.63 0 0 0 .39 1.26 1.84 1.84 0 0 0 1 .71 5.78 5.78 0 0 0 1.81.22 12.94 12.94 0 0 0 1.4-.07 2.47 2.47 0 0 0 1-.3 1.4 1.4 0 0 0 .6-.73 3.84 3.84 0 0 0 .2-1.36v-.62zM36.76 42.84h-5.19v-7.7h-6.76v7.7h-5.19V23.2h5.19v7.38h6.76V23.2h5.19v19.64zM45.23 31.08h8.3v3.64h-8.3v3.83h9.03v4.29H40.05V23.2h14.02v4.29h-8.84v3.59zM62.73 42.84h-5.18V23.2h8.22l3.7 12.33h.19l3.52-12.33h8.43v19.64h-5.19l.52-15.09h-.18l-4.93 15.09h-4.48l-4.98-15.09h-.15l.51 15.09zM84.77 23.2h5.18v19.65h-5.18zM109.58 35.4v2.17a6.82 6.82 0 0 1-.21 1.47 5.57 5.57 0 0 1-.54 1.35 4.46 4.46 0 0 1-1 1.19 5.39 5.39 0 0 1-1.4.84 8 8 0 0 1-1.5.43 9.63 9.63 0 0 1-1.59.16h-1.67q-2 0-3.67-.16a6.87 6.87 0 0 1-2.94-.85 4.81 4.81 0 0 1-1.9-2.21 10.27 10.27 0 0 1-.69-4.19v-5.12a10.15 10.15 0 0 1 .62-3.9 4.91 4.91 0 0 1 1.81-2.25 7 7 0 0 1 2.88-1 26.59 26.59 0 0 1 3.84-.25 28.63 28.63 0 0 1 3.47.18 5.56 5.56 0 0 1 2.45.84A4 4 0 0 1 109 26a10.71 10.71 0 0 1 .54 3.48v.76h-5.34v-.76a2.46 2.46 0 0 0-.32-1 1.5 1.5 0 0 0-.66-.56 3.1 3.1 0 0 0-1-.24q-.56-.05-1.2-.05a6.72 6.72 0 0 0-1.76.18 1.76 1.76 0 0 0-1 .62 2.39 2.39 0 0 0-.41 1.15 14.4 14.4 0 0 0-.09 1.77v3.07q0 1.1.07 1.87a2.62 2.62 0 0 0 .39 1.26 1.83 1.83 0 0 0 1 .71 5.78 5.78 0 0 0 1.81.22 13 13 0 0 0 1.4-.07 2.47 2.47 0 0 0 1-.3 1.4 1.4 0 0 0 .6-.73 3.86 3.86 0 0 0 .19-1.36v-.62zM116.47 39.46l-1 3.38h-5.39L116 23.2h7.88l5.91 19.65h-5.29l-1-3.38zM120 27.12h-.05l-2.36 8.51h4.82zM136.12 38.28h8.11v4.56h-13.29V23.2h5.18v15.08zM155 30.9a30.38 30.38 0 0 1 3.56.43 5.52 5.52 0 0 1 2.21.86 3 3 0 0 1 1.12 1.64 9.75 9.75 0 0 1 .31 2.73v1.61a5.28 5.28 0 0 1-.26 1.51 4.25 4.25 0 0 1-.73 1.32 4 4 0 0 1-1.43 1.06 9.28 9.28 0 0 1-2.4.69 22 22 0 0 1-3.59.25q-1.87 0-3.38-.12a6 6 0 0 1-2.59-.75 4.13 4.13 0 0 1-1.67-2 9.32 9.32 0 0 1-.6-3.73h5a3.77 3.77 0 0 0 .16 1.2 1.26 1.26 0 0 0 .53.68 2.32 2.32 0 0 0 1 .3 15.72 15.72 0 0 0 1.58.07q.91 0 1.53-.05a2.83 2.83 0 0 0 1-.24 1.13 1.13 0 0 0 .55-.54 2.36 2.36 0 0 0 .17-1 4.81 4.81 0 0 0-.08-1 .78.78 0 0 0-.36-.52 2 2 0 0 0-.83-.22l-1.45-.11-1.17.03q-1.79-.13-3.2-.29a6.2 6.2 0 0 1-2.39-.71 3.56 3.56 0 0 1-1.49-1.69 8.1 8.1 0 0 1-.52-3.26 7.83 7.83 0 0 1 .57-3.31 4 4 0 0 1 1.63-1.79 6.41 6.41 0 0 1 2.58-.75q1.52-.14 3.44-.14 1.58 0 3 .09a6.67 6.67 0 0 1 2.52.62 3.94 3.94 0 0 1 1.68 1.61 6.46 6.46 0 0 1 .63 3.16v.81h-5a3.13 3.13 0 0 0-.17-1.17 1.18 1.18 0 0 0-.52-.6 2 2 0 0 0-.9-.22h-1.33a10.34 10.34 0 0 0-1.67.1 2.42 2.42 0 0 0-.91.31.88.88 0 0 0-.39.52 3.05 3.05 0 0 0-.08.73 2.38 2.38 0 0 0 .14.93 1 1 0 0 0 .41.48 2 2 0 0 0 .66.22 7.83 7.83 0 0 0 .91.09z"/><path class="cls-3" d="M165.39.44h5.37v42.31h-5.37zM180.5.41l7.14 28.45V.41h5.37v42.33h-5.77l-7.4-27.11v27.11h-5.37V.41h6.03z"/><path class="cls-2" d="M194.69 40.66a2.26 2.26 0 1 1 2.31 2.25 2.23 2.23 0 0 1-2.27-2.25m2.27 2a2 2 0 1 0-2-2 2 2 0 0 0 2 2"/><path class="cls-2" d="M197.87 42h-.29l-.24-.63-.09-.2a.63.63 0 0 0-.11-.16.43.43 0 0 0-.14-.1.49.49 0 0 0-.2 0h-.23V42h-.27v-2.49a.14.14 0 0 1 0-.11.14.14 0 0 1 .09 0h.82a1 1 0 0 1 .26.08.6.6 0 0 1 .19.15.58.58 0 0 1 .12.2.85.85 0 0 1 0 .49.59.59 0 0 1-.1.19.68.68 0 0 1-.16.14 1 1 0 0 1-.2.1l.12.07.1.11.08.14.08.18.23.59v.1a.2.2 0 0 1-.06.06zm-.51-1.88a.49.49 0 0 0-.07-.27.38.38 0 0 0-.23-.16h-.56v.9h.33a.71.71 0 0 0 .23 0 .43.43 0 0 0 .16-.1.36.36 0 0 0 .1-.14.54.54 0 0 0 .04-.25z"/></svg>