<svg xmlns="http://www.w3.org/2000/svg" xmlns:xlink="http://www.w3.org/1999/xlink" viewBox="0 0 65 64"><defs><style>.cls-1,.cls-2,.cls-3{fill:none;}.cls-2{clip-rule:evenodd;}.cls-3{stroke:#303248;stroke-linecap:square;stroke-miterlimit:10;stroke-width:2px;}.cls-4{clip-path:url(#clip-path);}.cls-5{fill:#303248;}.cls-6{clip-path:url(#clip-path-2);}.cls-7{fill:#fff;}.cls-8{clip-path:url(#clip-path-3);}</style><clipPath id="clip-path"><rect class="cls-1" x="5" y="5" width="55" height="20"/></clipPath><clipPath id="clip-path-2"><path class="cls-2" d="M17.83,19V11.89h2.24A2.92,2.92,0,0,1,23.15,15v1A2.92,2.92,0,0,1,20.07,19Zm1-6.35v5.6h1.27a2,2,0,0,0,1.56-.65,2.43,2.43,0,0,0,.57-1.67V15a2.42,2.42,0,0,0-.57-1.66,2,2,0,0,0-1.56-.65Zm11.64-.76v4.72a2.29,2.29,0,0,1-.76,1.83,2.89,2.89,0,0,1-2,.66,2.73,2.73,0,0,1-1.89-.66,2.33,2.33,0,0,1-.74-1.83V11.89h1v4.72a1.72,1.72,0,0,0,.47,1.28,1.64,1.64,0,0,0,1.2.46A1.78,1.78,0,0,0,29,17.89a1.67,1.67,0,0,0,.49-1.28V11.89ZM32.54,19V11.89h2.32a2.81,2.81,0,0,1,1.74.48,1.7,1.7,0,0,1,.63,1.44,1.3,1.3,0,0,1-.28.82,1.78,1.78,0,0,1-.75.55,1.65,1.65,0,0,1,1.11.61,1.85,1.85,0,0,1,.41,1.2,1.81,1.81,0,0,1-.63,1.49,2.65,2.65,0,0,1-1.72.52Zm1-3.33v2.58h1.86a1.48,1.48,0,0,0,1-.32,1.17,1.17,0,0,0,.36-.92,1.27,1.27,0,0,0-.37-1,1.46,1.46,0,0,0-1-.39Zm0-.75h1.56a1.28,1.28,0,0,0,.87-.3,1.19,1.19,0,0,0,0-1.68,1.67,1.67,0,0,0-1-.29H33.5v2.27Zm9.65,2.26H40.47L39.84,19h-1l2.56-7.11h.83L44.76,19h-1l-.62-1.83Zm-2.4-.81h2.12l-1-3.05h0l-1.06,3.05ZM47.45,19h-1V11.89h1V19Z"/></clipPath><clipPath id="clip-path-3"><path class="cls-2" d="M32.5,59A3.5,3.5,0,1,0,29,55.5,3.5,3.5,0,0,0,32.5,59Z"/></clipPath></defs><title>map-label03_1</title><g id="Слой_2" data-name="Слой 2"><g id="Слой_1-2" data-name="Слой 1"><line class="cls-3" x1="32.5" y1="52.5" x2="32.5" y2="21"/><g class="cls-4"><rect class="cls-5" width="65" height="30"/></g><g class="cls-6"><rect class="cls-7" x="12.83" y="6.89" width="39.62" height="17.21"/></g><g class="cls-8"><rect class="cls-5" x="24" y="47" width="17" height="17"/></g></g></g></svg>