<svg xmlns="http://www.w3.org/2000/svg" xmlns:xlink="http://www.w3.org/1999/xlink" viewBox="0 0 83 66"><defs><style>.cls-1,.cls-2,.cls-3{fill:none;}.cls-2{clip-rule:evenodd;}.cls-3{stroke:#303248;stroke-linecap:square;stroke-miterlimit:10;stroke-width:2px;}.cls-4{clip-path:url(#clip-path);}.cls-5{fill:#303248;}.cls-6{clip-path:url(#clip-path-2);}.cls-7{fill:#fff;}.cls-8{clip-path:url(#clip-path-3);}</style><clipPath id="clip-path"><rect class="cls-1" x="5" y="5" width="73" height="20"/></clipPath><clipPath id="clip-path-2"><path class="cls-2" d="M23.26,16.08a3.4,3.4,0,0,1-.16,1.06,3,3,0,0,1-.47.9l1.06,1L23,19.7l-1.08-1a2.72,2.72,0,0,1-.74.33,3.13,3.13,0,0,1-.85.11,2.6,2.6,0,0,1-2-.86,3.1,3.1,0,0,1-.78-2.16V14.82a3.11,3.11,0,0,1,.78-2.16,2.6,2.6,0,0,1,2-.86,2.74,2.74,0,0,1,2.1.86,3,3,0,0,1,.81,2.17v1.26Zm-1-1.27a2.4,2.4,0,0,0-.53-1.6,1.76,1.76,0,0,0-1.42-.62A1.63,1.63,0,0,0,19,13.2a2.48,2.48,0,0,0-.5,1.6v1.27a2.5,2.5,0,0,0,.5,1.61,1.63,1.63,0,0,0,1.34.63,1.76,1.76,0,0,0,1.42-.62,2.42,2.42,0,0,0,.52-1.61V14.81ZM26.45,19h-1V11.89h1V19Zm7.72,0h-1l-3.42-5.43h0V19h-1V11.89h1l3.42,5.42h0V11.89h1V19Zm7.36-1a2.29,2.29,0,0,1-.88.73A3.48,3.48,0,0,1,39,19.1a2.74,2.74,0,0,1-2-.82,2.87,2.87,0,0,1-.81-2.11V14.71A2.93,2.93,0,0,1,37,12.6a3,3,0,0,1,3.88-.18A2,2,0,0,1,41.5,14v0h-.92A1.49,1.49,0,0,0,40.15,13,1.58,1.58,0,0,0,39,12.54a1.61,1.61,0,0,0-1.31.61,2.37,2.37,0,0,0-.5,1.55v1.47a2.31,2.31,0,0,0,.53,1.56,1.7,1.7,0,0,0,1.35.61,2.51,2.51,0,0,0,1-.16,1.44,1.44,0,0,0,.55-.39V16.2H39v-.75h2.57V18Zm2.24,1V11.89H46A2.92,2.92,0,0,1,49.09,15v1A2.92,2.92,0,0,1,46,19Zm1-6.35v5.6H46a2,2,0,0,0,1.56-.65,2.43,2.43,0,0,0,.57-1.67V15a2.42,2.42,0,0,0-.57-1.66A2,2,0,0,0,46,12.65Zm10,4.52H52L51.39,19h-1L53,11.89h.83L56.3,19h-1l-.63-1.83Zm-2.4-.81h2.12l-1-3.05h0L52.3,16.36Zm11-.28a3,3,0,0,1-.81,2.16,2.75,2.75,0,0,1-2.1.86,2.6,2.6,0,0,1-2-.86,3.1,3.1,0,0,1-.78-2.16V14.82a3.11,3.11,0,0,1,.78-2.16,2.6,2.6,0,0,1,2-.86,2.74,2.74,0,0,1,2.1.86,3,3,0,0,1,.81,2.17v1.26Zm-1-1.27a2.4,2.4,0,0,0-.53-1.6,1.76,1.76,0,0,0-1.42-.62,1.63,1.63,0,0,0-1.34.63,2.48,2.48,0,0,0-.5,1.6v1.27a2.5,2.5,0,0,0,.5,1.61,1.63,1.63,0,0,0,1.34.63,1.76,1.76,0,0,0,1.42-.62,2.42,2.42,0,0,0,.52-1.61V14.81Z"/></clipPath><clipPath id="clip-path-3"><path class="cls-2" d="M42.5,61A3.5,3.5,0,1,0,39,57.5,3.5,3.5,0,0,0,42.5,61Z"/></clipPath></defs><title>map-label04_1</title><g id="Слой_2" data-name="Слой 2"><g id="Слой_1-2" data-name="Слой 1"><line class="cls-3" x1="42.5" y1="53.5" x2="42.5" y2="22"/><g class="cls-4"><rect class="cls-5" width="83" height="30"/></g><g class="cls-6"><rect class="cls-7" x="12.55" y="6.79" width="55.76" height="17.91"/></g><g class="cls-8"><rect class="cls-5" x="34" y="49" width="17" height="17"/></g></g></g></svg>