<svg xmlns="http://www.w3.org/2000/svg" xmlns:xlink="http://www.w3.org/1999/xlink" viewBox="0 0 83 64"><defs><style>.cls-1,.cls-2,.cls-3{fill:none;}.cls-2{clip-rule:evenodd;}.cls-3{stroke:#303248;stroke-linecap:square;stroke-miterlimit:10;stroke-width:2px;}.cls-4{clip-path:url(#clip-path);}.cls-5{fill:#303248;}.cls-6{clip-path:url(#clip-path-2);}.cls-7{fill:#fff;}.cls-8{clip-path:url(#clip-path-3);}</style><clipPath id="clip-path"><rect class="cls-1" x="5" y="5" width="73" height="20"/></clipPath><clipPath id="clip-path-2"><path class="cls-2" d="M23.07,11.89v4.72a2.29,2.29,0,0,1-.76,1.83,2.89,2.89,0,0,1-2,.66,2.73,2.73,0,0,1-1.89-.66,2.33,2.33,0,0,1-.74-1.83V11.89h1v4.72a1.72,1.72,0,0,0,.47,1.28,1.64,1.64,0,0,0,1.2.46,1.78,1.78,0,0,0,1.27-.46,1.67,1.67,0,0,0,.49-1.28V11.89Zm7.08.76H27.81V19h-1V12.65H24.53v-.76h5.62v.76Zm2.56,3.27V19h-1V11.9h2.43a2.7,2.7,0,0,1,1.78.52,1.85,1.85,0,0,1,.62,1.5,1.61,1.61,0,0,1-.29,1,1.94,1.94,0,0,1-.83.64,1.46,1.46,0,0,1,.84.62,2,2,0,0,1,.26,1.06v.67a2.23,2.23,0,0,0,.07.6.89.89,0,0,0,.25.43V19h-1a.8.8,0,0,1-.24-.49,4,4,0,0,1-.05-.66V17.2a1.28,1.28,0,0,0-.34-.93,1.19,1.19,0,0,0-.9-.35Zm0-.76h1.37a1.79,1.79,0,0,0,1.17-.31,1.18,1.18,0,0,0,.36-.94,1.22,1.22,0,0,0-.35-.93,1.54,1.54,0,0,0-1.09-.33H32.71v2.51Zm9.87.54H39.65v2.54h3.42V19H38.69V11.89H43v.76H39.65v2.3h2.92v.76Zm7.29,1v0a2.14,2.14,0,0,1-.7,1.67,2.69,2.69,0,0,1-1.91.67,2.51,2.51,0,0,1-2-.85,3.14,3.14,0,0,1-.76-2.17V14.82a3.15,3.15,0,0,1,.76-2.17,2.5,2.5,0,0,1,2-.86,2.76,2.76,0,0,1,1.92.64,2.12,2.12,0,0,1,.69,1.7v0h-.92A1.59,1.59,0,0,0,48.5,13a1.69,1.69,0,0,0-1.24-.43,1.51,1.51,0,0,0-1.28.65,2.64,2.64,0,0,0-.48,1.61v1.27A2.66,2.66,0,0,0,46,17.7a1.51,1.51,0,0,0,1.28.65,1.69,1.69,0,0,0,1.24-.43,1.6,1.6,0,0,0,.44-1.19ZM57.08,19h-1V15.86H52.67V19h-1V11.89h1V15.1h3.45V11.89h1V19Zm7.07-6.35H61.81V19h-1V12.65H58.54v-.76h5.62v.76Z"/></clipPath><clipPath id="clip-path-3"><path class="cls-2" d="M43.5,59A3.5,3.5,0,1,0,40,55.5,3.5,3.5,0,0,0,43.5,59Z"/></clipPath></defs><title>map-label02_1</title><g id="Слой_2" data-name="Слой 2"><g id="Слой_1-2" data-name="Слой 1"><line class="cls-3" x1="43.5" y1="52.5" x2="43.5" y2="21"/><g class="cls-4"><rect class="cls-5" width="83" height="30"/></g><g class="cls-6"><rect class="cls-7" x="12.72" y="6.79" width="56.44" height="17.31"/></g><g class="cls-8"><rect class="cls-5" x="35" y="47" width="17" height="17"/></g></g></g></svg>