<svg xmlns="http://www.w3.org/2000/svg" xmlns:xlink="http://www.w3.org/1999/xlink" viewBox="0 0 83 65"><defs><style>.cls-1,.cls-2{fill:none;}.cls-2{clip-rule:evenodd;}.cls-3{fill:#303248;}.cls-4{clip-path:url(#clip-path);}.cls-5{clip-path:url(#clip-path-2);}.cls-6{fill:#fff;}.cls-7{clip-path:url(#clip-path-3);}</style><clipPath id="clip-path"><rect class="cls-1" x="5" y="5" width="73" height="20"/></clipPath><clipPath id="clip-path-2"><path class="cls-2" d="M23.9,16.72v0a2.14,2.14,0,0,1-.7,1.67,2.69,2.69,0,0,1-1.91.67,2.51,2.51,0,0,1-2-.85,3.14,3.14,0,0,1-.76-2.17V14.82a3.15,3.15,0,0,1,.76-2.17,2.5,2.5,0,0,1,2-.86,2.76,2.76,0,0,1,1.92.64,2.12,2.12,0,0,1,.69,1.7v0H23A1.59,1.59,0,0,0,22.54,13a1.69,1.69,0,0,0-1.24-.43,1.51,1.51,0,0,0-1.28.65,2.64,2.64,0,0,0-.48,1.61v1.27A2.66,2.66,0,0,0,20,17.7a1.51,1.51,0,0,0,1.28.65,1.69,1.69,0,0,0,1.24-.43A1.6,1.6,0,0,0,23,16.72ZM31.12,19h-1V15.86H26.71V19h-1V11.89h1V15.1h3.45V11.89h1V19Zm3.31,0h-1V11.89h1V19Zm7.42-2.28v0a2.14,2.14,0,0,1-.7,1.67,2.69,2.69,0,0,1-1.91.67,2.51,2.51,0,0,1-2-.85,3.14,3.14,0,0,1-.76-2.17V14.82a3.15,3.15,0,0,1,.76-2.17,2.5,2.5,0,0,1,2-.86,2.76,2.76,0,0,1,1.92.64,2.12,2.12,0,0,1,.69,1.7v0h-.92A1.59,1.59,0,0,0,40.49,13a1.69,1.69,0,0,0-1.24-.43,1.51,1.51,0,0,0-1.28.65,2.64,2.64,0,0,0-.48,1.61v1.27A2.66,2.66,0,0,0,38,17.7a1.51,1.51,0,0,0,1.28.65,1.69,1.69,0,0,0,1.24-.43,1.6,1.6,0,0,0,.44-1.19Zm5.52.44H44.69L44.05,19h-1l2.56-7.11h.83L49,19H48l-.62-1.83ZM45,16.36h2.12l-1-3.05h0L45,16.36ZM55.66,18a2.29,2.29,0,0,1-.88.73,3.48,3.48,0,0,1-1.63.33,2.74,2.74,0,0,1-2-.82,2.87,2.87,0,0,1-.81-2.11V14.71a2.93,2.93,0,0,1,.78-2.11A3,3,0,0,1,55,12.42,2,2,0,0,1,55.63,14v0H54.7A1.49,1.49,0,0,0,54.28,13a1.58,1.58,0,0,0-1.19-.43,1.61,1.61,0,0,0-1.31.61,2.37,2.37,0,0,0-.5,1.55v1.47a2.31,2.31,0,0,0,.53,1.56,1.7,1.7,0,0,0,1.35.61,2.51,2.51,0,0,0,1-.16,1.44,1.44,0,0,0,.55-.39V16.2H53.08v-.75h2.57V18Zm7.67-2a3,3,0,0,1-.81,2.16,2.75,2.75,0,0,1-2.1.86,2.6,2.6,0,0,1-2-.86,3.1,3.1,0,0,1-.78-2.16V14.82a3.11,3.11,0,0,1,.78-2.16,2.6,2.6,0,0,1,2-.86,2.74,2.74,0,0,1,2.1.86,3,3,0,0,1,.81,2.17v1.26Zm-1-1.27a2.4,2.4,0,0,0-.53-1.6,1.76,1.76,0,0,0-1.42-.62,1.63,1.63,0,0,0-1.34.63,2.48,2.48,0,0,0-.5,1.6v1.27a2.5,2.5,0,0,0,.5,1.61,1.63,1.63,0,0,0,1.34.63,1.76,1.76,0,0,0,1.42-.62,2.42,2.42,0,0,0,.52-1.61V14.81Z"/></clipPath><clipPath id="clip-path-3"><path class="cls-2" d="M43.5,60A3.5,3.5,0,1,0,40,56.5,3.5,3.5,0,0,0,43.5,60Z"/></clipPath></defs><title>Ресурс 9</title><g id="Слой_2" data-name="Слой 2"><g id="Слой_1-2" data-name="Слой 1"><rect class="cls-3" x="42.5" y="21" width="2" height="33.5"/><g class="cls-4"><rect class="cls-3" width="83" height="30"/></g><g class="cls-5"><rect class="cls-6" x="13.58" y="6.79" width="54.75" height="17.31"/></g><g class="cls-7"><rect class="cls-3" x="35" y="48" width="17" height="17"/></g></g></g></svg>