<?xml version="1.0" encoding="UTF-8"?>
<svg width="55px" height="53px" viewBox="0 0 55 53" version="1.1" xmlns="http://www.w3.org/2000/svg" xmlns:xlink="http://www.w3.org/1999/xlink">
    <!-- Generator: Sketch 51.3 (57544) - http://www.bohemiancoding.com/sketch -->
    <title>002-contract</title>
    <desc>Created with Sketch.</desc>
    <defs></defs>
    <g id="Page-1" stroke="none" stroke-width="1" fill="none" fill-rule="evenodd">
        <g id="Home-New" transform="translate(-392.000000, -969.000000)" fill="#2B3147" fill-rule="nonzero">
            <g id="usp" transform="translate(51.000000, 913.000000)">
                <g id="002-contract" transform="translate(341.000000, 56.000000)">
                    <path d="M36.1841676,13 L6.81583241,13 C6.36527537,13 6,13.4476 6,14 C6,14.5524 6.36527537,15 6.81583241,15 L36.1841676,15 C36.6348334,15 37,14.5524 37,14 C37,13.4477333 36.6348334,13 36.1841676,13 Z" id="Shape"></path>
                    <path d="M0.813715796,44 C1.26310391,44 1.62743159,43.6570744 1.62743159,43.233857 L1.62743159,3.3704162 C1.62743159,2.35686011 2.50320678,1.53228596 3.57969853,1.53228596 L40.4203015,1.53228596 C41.4967932,1.53228596 42.3725684,2.35686011 42.3725684,3.3704162 L42.3725684,7.12032856 C42.3725684,7.54354594 42.7367876,7.88647154 43.1862842,7.88647154 C43.6357808,7.88647154 44,7.54354594 44,7.12032856 L44,3.3704162 C44,1.51195763 42.394159,0 40.4203015,0 L3.57969853,0 C1.605841,0 0,1.51195763 0,3.3704162 L0,43.233857 C0,43.6570744 0.364327686,44 0.813715796,44 Z" id="Shape"></path>
                    <path d="M36.1841676,20 L6.81583241,20 C6.36527537,20 6,20.4476 6,21 C6,21.5524 6.36527537,22 6.81583241,22 L36.1841676,22 C36.6348334,22 37,21.5524 37,21 C37,20.4476 36.6348334,20 36.1841676,20 Z" id="Shape"></path>
                    <path d="M14.3727086,38.5986381 C12.7761045,37.8172971 9.47467824,39.1481206 8.28082308,40.1045117 C7.93541839,40.3812135 7.90440337,40.8578004 8.2113182,41.16909 C8.51823302,41.4802791 9.04705028,41.5085324 9.39256653,41.23173 C9.88133202,40.8401043 10.8643297,40.3785994 11.7829544,40.1092373 C12.9495878,39.7672812 13.4731615,39.8693352 13.5749086,39.9239315 C13.5821603,39.9499729 13.5898583,40.0162325 13.5707807,40.1296481 C13.4365682,40.9267747 13.6330339,41.4871162 14.1548225,41.7952889 C14.3916747,41.935148 14.6546329,42 14.9494988,42 C16.0008857,41.9998995 17.4568066,41.1751227 19.5654933,39.9803377 C19.9038694,39.7885969 20.2509476,39.5919295 20.603604,39.395262 C20.9965353,39.1759717 21.1178062,38.7112493 20.8745949,38.3572277 C20.6313836,38.0031056 20.1158426,37.893913 19.7226881,38.1129016 C19.3667963,38.3114794 19.0163712,38.5099567 18.6747598,38.7035073 C17.5587768,39.3358395 15.9451032,40.2502024 15.2116761,40.4504896 C15.215023,40.4220351 15.2194856,40.3904637 15.225287,40.3559766 C15.3579376,39.5691056 15.0472296,38.9286292 14.3727086,38.5986381 Z" id="Shape"></path>
                    <path d="M54.534933,17.3311164 L51.1424795,13.9854085 C50.8419792,13.6891552 50.4425692,13.5259396 50.0177314,13.5259396 C49.5928935,13.5259396 49.1934835,13.6891552 48.8929832,13.9854085 L47.6523016,15.2089944 L47.4841119,15.0431223 C46.8414141,14.4094929 45.7959661,14.4093866 45.1530527,15.0431223 L43.695804,16.4802912 L43.695804,9.7969513 C43.695804,9.3567154 43.3341047,9 42.8877179,9 C42.4413311,9 42.0796317,9.3567154 42.0796317,9.7969513 L42.0796317,18.0741938 L33.9959689,26.0465758 L7.3031594,26.0465758 C6.85688035,26.0465758 6.49507325,26.4032912 6.49507325,26.8435271 C6.49507325,27.283763 6.85688035,27.6404784 7.3031594,27.6404784 L32.3796888,27.6404784 L26.8165005,33.1271161 C26.505118,33.434208 26.333696,33.8423534 26.333696,34.2765324 C26.333696,34.653331 26.4632053,35.0102589 26.7007826,35.2988616 C25.7790257,36.3415926 24.9476666,37.6272345 24.4529024,38.7994967 C23.6587153,40.6810456 23.8233494,41.9192954 24.2590695,42.7169905 L23.6050584,43.3619898 C23.2894738,43.6733321 23.2894738,44.1778554 23.6050584,44.4890914 C23.7627968,44.6446563 23.9696669,44.7224388 24.1764292,44.7224388 C24.3831915,44.7224388 24.5900616,44.6446563 24.7478,44.4890914 L25.402242,43.8436671 C25.8017598,44.055975 26.3095612,44.2034641 26.9520435,44.2034641 C27.6101489,44.2034641 28.408538,44.0492806 29.3740393,43.6528239 C30.5625724,43.1649834 31.866177,42.3450799 32.9235847,41.4360241 C33.2161119,41.6703278 33.5780267,41.7980525 33.9601976,41.7980525 C34.4004429,41.7980525 34.8143985,41.6288863 35.1255656,41.322007 L42.079524,34.4638691 L42.079524,41.1062988 C41.1111136,41.9194017 39.8921964,42.3645255 38.610464,42.3645255 L36.4666653,42.3645255 C34.5064638,42.3645255 32.9117327,43.9372823 32.9117327,45.8704737 L32.9117327,47.9847323 C32.9117327,49.2488034 32.460282,50.4509247 31.6359263,51.4059911 L3.55504034,51.4059911 C2.48599623,51.4059911 1.6161723,50.548259 1.6161723,49.4939456 L1.6161723,47.3713986 C1.6161723,46.9311627 1.2543652,46.5744473 0.808086151,46.5744473 C0.361807106,46.5744473 0,46.9311627 0,47.3713986 L0,49.4939456 C0.00010774482,51.4272432 1.59483883,53 3.55504034,53 L33.7559134,53 C39.2366769,53 43.6956963,48.602529 43.6956963,43.1972865 L43.6956963,32.8699665 L50.4965493,26.1628244 C50.4966571,26.1627181 50.4966571,26.1627181 50.4967648,26.1627181 L50.4968726,26.1625056 L53.4623333,23.2379069 C54.1049234,22.6040649 54.1049234,21.5729162 53.4623333,20.9390743 L53.2942513,20.7732022 L54.5350407,19.54951 C55.1550044,18.9378764 55.1550044,17.9427499 54.534933,17.3311164 Z M33.7559134,51.4060974 L33.6062559,51.4060974 C34.2071487,50.3747362 34.5277973,49.2015176 34.5277973,47.9848386 L34.5277973,45.8705799 C34.5277973,44.8162665 35.3975135,43.9585344 36.4665576,43.9585344 L38.6103563,43.9585344 C39.8440345,43.9585344 41.033645,43.6423041 42.0794163,43.0496911 L42.0794163,43.1972865 L42.079524,43.1972865 C42.079524,47.7236511 38.3456273,51.4060974 33.7559134,51.4060974 Z M42.7588551,19.6585329 L44.5303954,21.4056627 L37.1174441,28.7165751 L35.345796,26.9693391 L42.7588551,19.6585329 Z M25.8895718,42.2358445 C25.1912777,41.5472785 25.6245196,40.1709968 25.9448449,39.4120866 C26.3563224,38.4371495 27.0653911,37.3324688 27.8400763,36.4357392 L31.7699609,40.3113665 C29.8902448,41.8857172 26.9634645,43.2949396 25.8895718,42.2358445 Z M33.9827163,40.1949053 C33.9796994,40.1978806 33.9733425,40.2041499 33.9601976,40.2041499 C33.946945,40.2041499 33.940588,40.1978806 33.9375712,40.194799 L27.9592421,34.2989533 C27.9562252,34.2959781 27.9498683,34.2897087 27.9498683,34.2766387 C27.9498683,34.2635687 27.9562252,34.2572993 27.9592421,34.2543241 L34.2031622,28.0964408 L36.0917134,29.9588628 C36.3745435,30.2376895 36.7460477,30.3772091 37.1175518,30.3771029 C37.4891637,30.3771029 37.8607756,30.2375833 38.1437135,29.9588628 L45.6733525,22.5328706 L48.7825448,25.5991142 L33.9827163,40.1949053 Z M52.319484,22.1108052 L49.9252863,24.4720125 L43.9017044,18.5314313 L46.2957943,16.1703302 C46.3021512,16.1641671 46.3103399,16.1610856 46.3185285,16.1610856 C46.3267171,16.1610856 46.3349057,16.1640609 46.3411549,16.1703302 L52.319484,22.0662822 C52.3320901,22.0785021 52.3320901,22.098479 52.319484,22.1108052 Z M52.151402,19.6461005 L48.7950431,16.3359898 L50.0176236,15.1301494 L53.3739825,18.44026 L52.151402,19.6461005 Z" id="Shape"></path>
                    <path d="M18.2191079,44 L9.78089209,44 C9.34963142,44 9,44.4476 9,45 C9,45.5524 9.34963142,46 9.78089209,46 L18.2191079,46 C18.6503686,46 19,45.5524 19,45 C19,44.4477333 18.6503686,44 18.2191079,44 Z" id="Shape"></path>
                    <path d="M6.80501572,9 L22.1949843,9 C22.6395676,9 23,8.5524 23,8 C23,7.4476 22.6395676,7 22.1949843,7 L6.80501572,7 C6.36043237,7 6,7.4476 6,8 C6,8.55226667 6.36043237,9 6.80501572,9 Z" id="Shape"></path>
                </g>
            </g>
        </g>
    </g>
</svg>