<?xml version="1.0" encoding="UTF-8"?>
<svg width="59px" height="59px" viewBox="0 0 59 59" version="1.1" xmlns="http://www.w3.org/2000/svg" xmlns:xlink="http://www.w3.org/1999/xlink">
    <!-- Generator: Sketch 51.3 (57544) - http://www.bohemiancoding.com/sketch -->
    <title>001-handshake</title>
    <desc>Created with Sketch.</desc>
    <defs></defs>
    <g id="Page-1" stroke="none" stroke-width="1" fill="none" fill-rule="evenodd">
        <g id="Home-New" transform="translate(-90.000000, -963.000000)" fill="#2B3147" fill-rule="nonzero">
            <g id="usp" transform="translate(51.000000, 913.000000)">
                <g id="001-handshake" transform="translate(39.000000, 50.000000)">
                    <path d="M40.6013272,33.4245582 L32.7627435,28.5664016 C32.6672321,28.5071419 32.5573997,28.4669909 32.4465524,28.4494746 L29.9924633,28.0127046 C29.5384743,27.9317201 29.0926043,28.246786 29.0125417,28.7047121 C28.932479,29.1626382 29.2444978,29.6123748 29.6984868,29.6931318 L32.0143269,30.1053335 L39.7157893,34.8785247 C40.0917454,35.1115825 40.6074165,34.998409 40.8569638,34.6321591 C41.1246663,34.2390661 41.0037829,33.6742223 40.6013272,33.4245582 Z" id="Shape"></path>
                    <path d="M58.7666274,33.5427312 C58.4399193,33.1939162 57.8920194,33.1754787 57.5425687,33.501362 L54.0320152,36.7763282 L37.9462015,20.9336506 L58.7259909,1.49496335 C59.0748643,1.16850384 59.0926428,0.621485392 58.7657038,0.273246556 C58.4387648,-0.07499228 57.8906341,-0.0927384021 57.5417606,0.233605868 L36.1048608,20.2869542 C35.7513696,20.6175622 35.7439811,21.193274 36.088814,21.5329855 L37.5116682,22.9341225 L37.0575093,23.3344474 L27.5470713,22.5169734 C27.4003412,22.5045281 27.247839,22.5297644 27.1139233,22.5915302 L19.5785107,26.0172231 C19.5565762,26.0115766 19.5346418,26.0060454 19.5118992,26.0020122 L15.1774179,25.238468 L15.5279075,24.3441326 C15.7011898,23.9018623 15.4847313,23.4028967 15.0430404,23.2267031 L1.18784645,17.6947528 C0.743615797,17.5171764 0.23981575,17.7330107 0.0622620213,18.1763181 C-0.115407152,18.6195102 0.100589614,19.1226243 0.544704825,19.299855 L13.6018306,24.5132969 L5.90721994,44.141084 L1.15529109,42.4610794 C0.704364647,42.3018253 0.209569276,42.5372495 0.0499094537,42.9873556 C-0.109750369,43.4373466 0.12633375,43.9313571 0.577144745,44.0907265 L6.11917615,46.0499445 C6.55417124,46.2037826 7.04665772,45.9787295 7.21462955,45.550057 L8.50056647,42.26979 L11.8700468,44.1545665 L11.4984307,44.7558604 C10.4454609,46.4593729 10.9770831,48.7004546 12.6838154,49.7516242 C13.586361,50.3075157 14.7067504,50.4393441 15.7152741,50.1134607 C15.8770119,51.1625562 16.4946403,52.0987217 17.4003028,52.656457 C18.3028484,53.2123485 19.4231223,53.3441768 20.4317614,53.0182935 C20.5936147,54.0673889 21.2110122,55.0034392 22.1166747,55.5612897 C23.021991,56.1189098 24.1364927,56.2501619 25.1483643,55.9241634 C25.3104484,56.9727978 25.9277305,57.9085025 26.8331621,58.4661225 C28.1491146,59.2765671 29.8909421,59.1554556 31.0771349,58.1630556 C31.3761363,57.9128814 31.6334622,57.6143086 31.8382609,57.282894 L32.4289907,56.3273691 L32.9153586,56.6255961 C34.2330428,57.4337361 35.9744085,57.3092828 37.1587542,56.3146933 C37.4572938,56.0639429 37.7140425,55.7649092 37.9182639,55.4331489 C38.324167,54.7736615 38.4921388,54.0345471 38.4478081,53.3150225 C38.722797,53.3810519 39.0042509,53.4165441 39.2882445,53.4165441 C40.5458975,53.4165441 41.7355536,52.7545216 42.3937031,51.6853754 C42.7901397,51.0412142 42.9712722,50.3068243 42.9253253,49.5675946 C43.1996215,49.6332783 43.4804981,49.6685401 43.7635682,49.6685401 C45.0212212,49.6685401 46.2109928,49.0065176 46.8690268,47.9373713 C47.2658097,47.2927492 47.4468268,46.5578984 47.4005335,45.8180926 C47.6778313,45.8840067 47.9594006,45.9184619 48.2397,45.9184619 C49.4627196,45.9184619 50.6586098,45.3038007 51.3444659,44.1895978 C52.3943187,42.4840111 51.8584251,40.2439665 50.1497302,39.1960234 L49.5563452,38.8321127 L51.5464939,36.7565078 L53.4080374,38.5898896 C53.7345146,38.9112788 54.2726016,38.9184234 54.6075063,38.6061377 L58.7255291,34.7645632 C59.0747489,34.4385647 59.09322,33.8915462 58.7666274,33.5427312 Z M16.2149181,47.6605779 C15.6632086,48.5528391 14.4871749,48.8307849 13.5931722,48.2804246 C12.6991696,47.7298339 12.4207173,46.5559395 12.9721959,45.663563 L17.8224836,37.8171267 C18.3638031,36.9413441 19.5254062,36.6549862 20.4123667,37.1780358 C21.330151,37.7196383 21.5834363,38.9755797 21.0324195,39.8671495 L16.2149181,47.6605779 Z M20.9311746,50.5654107 C20.3796959,51.4576719 19.2035468,51.7357329 18.3096596,51.1852574 C17.4265087,50.641235 17.1428615,49.451323 17.6886833,48.5683958 L21.5687749,42.2912237 C22.1100944,41.4155563 23.2716975,41.1290831 24.1586581,41.6521328 C25.0764423,42.1937352 25.3297277,43.4496767 24.7785953,44.3412465 L20.9311746,50.5654107 Z M25.6480083,53.4702434 C25.3806387,53.9024883 24.9606514,54.2050942 24.4656251,54.3221725 C23.9702526,54.4393661 23.4591795,54.3567429 23.026147,54.0900901 C22.1431115,53.5460678 21.8594643,52.3560405 22.4052861,51.4732285 L25.3154125,46.7653206 C25.8567321,45.889538 27.0184506,45.6031801 27.9052957,46.1262298 C28.8230799,46.6678322 29.0763653,47.9237737 28.5253484,48.8153434 L25.6480083,53.4702434 Z M32.2717552,53.2896709 L30.3643802,56.3751914 C29.8193665,57.2567358 28.627286,57.5396366 27.7426343,56.9949229 C26.8595989,56.4510158 26.5760671,55.2608732 27.1217735,54.3780613 L29.0618193,51.2395329 C29.6031388,50.3639807 30.7648574,50.0771619 31.6517025,50.6005572 C32.5694867,51.1420444 32.8227721,52.3981011 32.2717552,53.2896709 Z M48.0465612,37.9060878 L43.7541017,35.2733238 C43.3560489,35.0291418 42.8075718,35.159933 42.5630602,35.5572618 C42.3184332,35.9545905 42.4494628,36.5020699 42.8475156,36.7461367 L49.2427977,40.6686059 C50.137724,41.2175833 50.4184851,42.3909016 49.8686227,43.2843151 C49.3186448,44.1776134 48.1430729,44.4578638 47.2480312,43.9090016 L40.3891238,39.7020184 C39.9817199,39.4519594 39.4483661,39.5792936 39.1980823,39.9859563 C38.9477985,40.3926191 39.0751338,40.9250027 39.4825377,41.1748313 L44.7675895,44.4163794 C45.6517794,44.9586732 45.9375046,46.1482396 45.3934144,47.0320886 C44.8501324,47.9146701 43.6583982,48.1997604 42.7729384,47.6567752 L37.9833747,44.7191006 C37.5758554,44.4691568 37.042617,44.5963758 36.7923332,45.0030385 C36.5420494,45.4097013 36.6693847,45.942085 37.0767886,46.1919135 L40.2923812,48.164153 C41.1764557,48.706562 41.4622964,49.8958979 40.9182062,50.7798622 C40.3749241,51.6623284 39.1831899,51.9476492 38.2977302,51.4045487 C38.2977302,51.4045487 35.4698003,49.6717667 35.4433635,49.6590909 C35.0479659,49.4684929 34.5644841,49.604124 34.3299008,49.9853199 C34.079617,50.3919827 34.2069523,50.9243663 34.6143562,51.1741949 L35.817173,51.9119265 C36.7120992,52.4609039 36.9927449,53.6342222 36.4428825,54.5276357 C35.8996004,55.4102172 34.7078662,55.6953075 33.8224065,55.1523223 L33.3389247,54.8557085 L33.7460976,54.1969126 C34.2666371,53.3547784 34.4281441,52.3176674 34.1891738,51.3515408 C33.9534361,50.3980901 33.3653615,49.6027412 32.5335835,49.1119572 C31.8845542,48.729148 31.1585233,48.5740423 30.4515409,48.6216342 C30.5843021,48.0523754 30.5849948,47.4524643 30.4427671,46.8773286 C30.2070293,45.9238779 29.6189547,45.128529 28.7871767,44.637745 C28.1381474,44.2548206 27.4121166,44.0997148 26.7051341,44.1473067 C27.0622041,42.6160699 26.4048628,40.9685614 25.0407699,40.1635328 C24.3917406,39.7807236 23.6657098,39.6256179 22.9587273,39.6730945 C23.3157974,38.1418577 22.6584561,36.4943492 21.2943632,35.6893206 C19.600907,34.6901217 17.3826398,35.2373706 16.349411,36.9087327 L12.7810198,42.6815231 L9.13782042,40.6444066 L14.5334681,26.8805604 L17.4713012,27.3980788 C16.6357135,28.4340375 16.4007838,29.8925613 16.9895511,31.1833036 C17.5988675,32.5186417 18.9225547,33.3088051 20.3048879,33.3086898 C20.8083416,33.3086898 21.3196455,33.2038264 21.806937,32.9823456 L26.8781855,30.6767325 C27.3076392,30.4815252 27.5029714,29.9605497 27.3072929,29.5318772 C27.1117298,29.1033198 26.589805,28.9081125 26.1603512,29.1035503 L21.0889873,31.4090481 C20.1332218,31.8437129 19.001057,31.4209173 18.5656002,30.4666599 C18.1302587,29.5124025 18.5537094,28.3825277 19.5097058,27.9478629 L27.6247654,24.2586285 L37.2780084,25.0884326 C37.302829,25.090622 37.3276496,25.0916592 37.3523547,25.0916592 C37.5624638,25.0916592 37.7664543,25.0152586 37.9254215,24.8753639 L38.7471558,24.1511147 L50.3130842,35.5419356 L48.0465612,37.9060878 Z" id="Shape"></path>
                </g>
            </g>
        </g>
    </g>
</svg>