<?xml version="1.0" encoding="UTF-8"?>
<svg width="58px" height="49px" viewBox="0 0 58 49" version="1.1" xmlns="http://www.w3.org/2000/svg" xmlns:xlink="http://www.w3.org/1999/xlink">
    <!-- Generator: Sketch 51.3 (57544) - http://www.bohemiancoding.com/sketch -->
    <title>004-diploma</title>
    <desc>Created with Sketch.</desc>
    <defs></defs>
    <g id="Page-1" stroke="none" stroke-width="1" fill="none" fill-rule="evenodd">
        <g id="Home-New" transform="translate(-700.000000, -973.000000)" fill="#2B3147" fill-rule="nonzero">
            <g id="usp" transform="translate(51.000000, 913.000000)">
                <g id="004-diploma" transform="translate(649.000000, 60.000000)">
                    <path d="M57.6075508,12.323348 C56.5959838,10.8705488 55.4667103,9.47837517 54.2484931,8.17736098 C54.4179727,7.2507202 54.1259192,6.2594713 53.3913604,5.57090733 C52.0669421,4.32919112 50.6429602,3.17420908 49.1592399,2.13649541 C48.5339799,1.54041847 47.7361429,1.23950363 46.9020204,1.28906607 C46.0431177,1.33995611 45.2643084,1.75548414 44.7098493,2.4586513 L41.3507916,6.7205791 C36.781482,2.38032497 30.8355384,0 24.4988627,0 C18.0997938,0 12.0764118,2.43829536 7.48586192,6.87280661 C7.48364942,6.87501919 7.48143692,6.87723178 7.4796669,6.87944436 C7.37789063,6.97768426 7.27567188,7.07548156 7.17566574,7.17593404 C2.54838798,11.8033848 0,17.9557659 0,24.5002212 C0,30.8853687 2.44262919,36.9302171 6.87785971,41.5209385 C7.0442417,41.693522 7.26637929,41.7802564 7.48895948,41.7802564 C7.70136202,41.7802564 7.91420704,41.7010449 8.07926148,41.5417371 C8.41645056,41.2155984 8.42574315,40.6779345 8.09961678,40.3402903 C6.58359372,38.7711079 5.31891355,37.0187215 4.32416167,35.135791 C4.93924396,35.2871334 5.46361281,35.215445 5.7578788,35.1455265 C6.78714604,34.9012544 7.60356838,34.1365767 7.78986308,33.2435677 C7.93677483,32.540843 7.66463405,31.8505089 7.06149943,31.3973666 C5.36537658,30.1220186 4.13963699,27.3836935 4.07680118,26.4083754 C4.53744927,26.4951097 4.89676345,26.9128503 6.36057106,28.7833901 C7.03804657,29.6494053 7.8814617,30.7273885 9.05056061,32.1434583 C11.3113201,34.8826685 13.6557132,35.5539741 15.8492118,35.5539741 C16.4855345,35.5539741 17.108582,35.4973313 17.7134867,35.4181199 C18.5422991,36.5204418 19.4339473,37.5824942 20.376041,38.5874613 C20.9384652,39.1870783 21.7026718,39.493746 22.4686485,39.493746 C22.6412256,39.493746 22.8138026,39.4769302 22.9841671,39.4459537 C23.4045472,39.8397981 23.8337773,40.2252346 24.2727425,40.5991655 C23.5775667,41.521381 22.9093837,42.5940539 22.9093837,43.7583289 C22.9093837,44.8287893 23.3288787,46.0244832 23.84838,47.2905381 C19.122866,47.1595517 14.6424999,45.6032024 10.8528847,42.7675225 C10.4771977,42.4865211 9.94486377,42.5630775 9.66343052,42.9387785 C9.38243964,43.3144795 9.45899302,43.8468333 9.83467998,44.1282772 C14.0937933,47.3153194 19.164904,49 24.4988627,49 C24.7063977,49 24.9134902,48.9964598 25.1205826,48.9911496 C25.1227952,48.9911496 25.1254502,48.9920347 25.1276627,48.9920347 C25.1387253,48.9920347 25.149788,48.9907071 25.1604082,48.9902646 C29.6252865,48.8712262 33.9481207,47.5472009 37.701008,45.1420947 C41.4348676,42.7489366 44.4412485,39.4003739 46.4188046,35.4459988 C46.9250307,35.2052669 47.3029301,34.76186 47.4604621,34.2069377 L47.7104776,33.3267618 C47.7688883,33.1218741 47.9259776,32.9643364 48.1308576,32.906366 L49.0110007,32.6563412 C49.6911313,32.4634017 50.2031099,31.9394558 50.380997,31.2553171 C50.5588841,30.5711783 50.3668369,29.864471 49.8668058,29.3648638 L48.7162921,28.2143071 C48.9030293,26.9867515 48.9981679,25.7392824 48.9981679,24.5002212 C48.9981679,23.6165052 48.9477224,22.7274788 48.8534687,21.849958 L52.4992698,18.9762212 C52.8678766,18.6859269 52.9311549,18.1513605 52.6408715,17.7827398 C52.3501455,17.4145617 51.8160416,17.351281 51.4474347,17.6415753 L45.945324,21.9787319 C45.6749533,21.686225 45.3227191,21.484435 44.9235792,21.4012408 L43.5996034,21.1246647 C43.5442903,21.1131592 43.4951722,21.0821826 43.4606568,21.0374879 L43.3566681,20.9016337 C47.1719486,16.8923859 50.8708503,12.7928636 53.4019805,9.7668994 C54.4144326,10.8838245 55.3582965,12.0662428 56.2136592,13.2946835 C56.362341,13.5084215 56.3185329,13.8018134 56.1140954,13.9633339 L54.4542582,15.271871 C54.0856512,15.5621653 54.022373,16.0967317 54.3126565,16.4649099 C54.480366,16.6777628 54.7290539,16.7888358 54.9808394,16.7888358 C55.1649216,16.7888358 55.3503314,16.7290954 55.5060932,16.6065168 L57.1663731,15.2975372 C58.0752789,14.5806518 58.2695387,13.2743274 57.6075508,12.323348 Z M40.294089,8.06097771 L36.4190702,12.9778378 C36.150912,13.3181371 35.8743462,13.6588788 35.5814076,14.0106837 C35.5522023,14.0102412 35.5229969,14.0084711 35.4937916,14.0093561 C35.069429,14.0239594 34.6667493,14.2160139 34.3884134,14.5359572 C34.1021124,14.8651934 33.810059,15.1895619 33.514908,15.5117178 C33.2334746,15.2568252 33.0131069,14.9550254 33.0091244,14.6346396 C33.0007168,14.0173216 33.7206729,13.1805128 34.984468,12.3379512 C36.8394502,11.1006601 37.3589513,8.411455 37.7691538,5.9523612 C38.6528369,6.58826505 39.4958094,7.29275981 40.294089,8.06097771 Z M35.3743151,23.8669726 C35.3752002,23.9231728 35.3561725,23.978488 35.3203296,24.0218552 L34.6574566,24.8219346 L30.587293,20.7511763 C32.345809,19.2112003 34.015824,17.5406805 35.5561848,15.7820986 L39.6263485,19.852857 L38.826299,20.5153122 C38.7829334,20.5511564 38.7302752,20.5692998 38.6718645,20.5697424 L37.3195684,20.5440761 C36.7894471,20.533898 36.2903011,20.735688 35.9154991,21.110504 C35.5402547,21.4857625 35.3389147,21.9844847 35.3490924,22.5150684 L35.3743151,23.8669726 Z M17.2639013,29.9056255 C16.5607603,30.4601053 16.145248,31.2385012 16.0943598,32.0978787 C16.0580743,32.7134265 16.2133937,33.3099459 16.5368651,33.8316792 C14.4685954,33.9715161 12.4246635,33.5621834 10.3608189,31.0614925 C9.20632247,29.662681 8.37043001,28.5944332 7.69870705,27.7363835 C5.86629257,25.3945578 5.31271854,24.687408 3.78297767,24.687408 C3.16612536,24.687408 2.67981202,25.0405404 2.48245461,25.6317495 C1.93861564,27.2602299 3.86749621,31.1216755 6.04063971,32.7554661 C6.14064584,32.8306948 6.13400835,32.8625564 6.12692826,32.8966306 C6.0902003,33.0727542 5.82248463,33.3838471 5.3649341,33.4922649 C4.77595954,33.6325443 4.1706123,33.3564107 3.65996126,32.7151966 C3.3559601,32.3328577 3.05815407,31.891221 2.75105534,31.3686027 C2.05941966,29.1719242 1.6992203,26.8610753 1.6992203,24.5002212 C1.6992203,18.2062333 4.2626534,12.4994717 8.40052037,8.36985789 C10.3010806,8.59554408 11.6560317,9.01948005 12.4304161,9.63060268 C13.018948,10.0952505 13.4698609,10.5532607 13.8681157,10.9581682 C15.0513749,12.1600575 16.0735621,13.1982136 18.955599,12.4220304 C19.8423796,12.1835111 20.547733,12.2423665 21.1128123,12.6025793 C21.97083,13.1499788 22.5797173,14.4257693 22.9217739,16.3949914 C23.1178038,17.5212094 22.6881311,18.8040802 21.7721451,19.8263057 C21.0676767,20.612667 20.1924013,21.0945732 19.541476,21.0538612 L19.4357172,21.0472234 C17.7935801,20.9436733 15.0451798,20.7706472 13.8486455,22.2477852 C13.2835662,22.9456421 13.1539122,23.8607772 13.4627809,24.9679669 C14.1668068,27.4903412 15.439452,29.0590812 17.4090431,29.7910123 L17.2639013,29.9056255 Z M15.0991654,24.5108418 C14.9469435,23.9643273 14.9703964,23.5629601 15.1690812,23.3173604 C15.8138114,22.5217062 18.1878524,22.6712785 19.3286309,22.742967 L19.4352747,22.7496049 C20.6207464,22.8235061 21.9677325,22.1548555 23.0381528,20.9600466 C24.2979654,19.5537123 24.8803022,17.7380451 24.5962139,16.1033696 C24.1625587,13.6102015 23.3222411,11.9963243 22.0265857,11.170136 C21.0499765,10.5475079 19.8684874,10.4165215 18.5139787,10.7811594 C16.5890807,11.2993525 16.1779933,10.8820544 15.0792526,9.7660143 C14.6460399,9.32614766 14.1548591,8.82742552 13.4835786,8.29684182 C12.679989,7.66270806 11.5356703,7.20248535 10.0161072,6.9028981 C13.9570592,3.65346025 19.0042746,1.69928384 24.4988627,1.69928384 C28.6995654,1.69928384 32.7157434,2.82417439 36.2159603,4.93057832 C36.1942774,5.06200727 36.1721522,5.19387872 36.150027,5.32752037 C35.7849601,7.53526177 35.3712177,10.0372802 34.0414892,10.9236514 C32.2121724,12.1432416 31.293089,13.3995611 31.3094616,14.6572081 C31.3200818,15.4227709 31.6678909,16.1223979 32.3462514,16.7459111 C31.3811474,17.7322924 30.377103,18.6819442 29.3407555,19.5833612 C29.0208243,19.8617075 28.8287769,20.2648448 28.8141743,20.6892232 C28.8132892,20.7184297 28.8150594,20.7471936 28.8155018,20.7764001 C28.4645952,21.0684644 28.1181135,21.3494658 27.7826944,21.6140939 L19.0768455,28.47628 C17.539582,28.234663 15.9301903,27.4876862 15.0991654,24.5108418 Z M23.1934722,37.5342594 C22.7283991,37.9210234 22.0354358,37.8727885 21.6154983,37.4249564 C20.6017186,36.3434331 19.6498898,35.1924338 18.7754994,33.9962973 C18.7754994,33.9962973 18.7750568,33.9958548 18.7750568,33.9954123 C18.6130999,33.7737088 18.4524705,33.5511203 18.2962661,33.3263193 C18.2675032,33.2851647 18.2352004,33.2466652 18.1997999,33.210821 C17.9143841,32.9253945 17.7692423,32.5656242 17.790925,32.1978886 C17.8126079,31.8297104 17.9989026,31.4898536 18.3161789,31.2398288 L28.8345295,22.9487398 C29.1137503,22.7283638 29.4004938,22.4964824 29.6907772,22.2575206 L34.0397192,26.6066252 C34.0897224,26.9181605 34.2114112,27.2057998 34.3963785,27.4527269 C30.3275424,31.3203677 26.1834804,35.0508268 23.1934722,37.5342594 Z M35.7066366,28.5519511 L35.8424858,28.6559438 C35.8871788,28.6904605 35.9181541,28.7395804 35.9296593,28.7948957 L36.2057826,30.118921 C36.2894161,30.5180757 36.490756,30.8707656 36.783252,31.1407039 L35.5225544,32.7404203 C35.522112,32.7408629 35.522112,32.7413054 35.5216694,32.7413054 L28.7681537,41.3102981 C28.6070818,41.5147433 28.3132583,41.5581104 28.0995282,41.409423 C27.3782447,40.9071607 26.6728912,40.3739219 25.9865656,39.8145743 C25.9830255,39.8119193 25.979928,39.8088216 25.9768304,39.8057239 C25.9741753,39.8039538 25.9710778,39.8021837 25.9684228,39.7999712 C25.4927295,39.4118795 25.0272141,39.0105122 24.5718761,38.5976394 C27.5981698,36.0659719 31.6975387,32.366932 35.7066366,28.5519511 Z M36.784137,43.7114215 C33.4511872,45.847032 29.6350216,47.0670646 25.6807944,47.2701822 C25.1148301,45.9297836 24.608604,44.6765617 24.608604,43.7583289 C24.608604,43.1149022 25.0758896,42.3635001 25.5922933,41.671396 C26.0963069,42.0625853 26.6082855,42.4418264 27.1286717,42.8038094 C27.5087837,43.0684374 27.9455364,43.1963262 28.3787491,43.1963262 C29.0292318,43.1963262 29.6721921,42.9082445 30.1023072,42.3621725 L36.3407467,34.4472271 C37.6191446,35.5367158 39.0094961,37.6285165 39.5294398,41.6426321 C38.6700945,42.3958042 37.7545511,43.0892359 36.784137,43.7114215 Z M41.0224526,40.2124015 C40.3117892,36.4142366 38.8001911,34.292787 37.3930243,33.1121386 L38.1342206,32.1717797 C38.2762649,31.9912308 38.4276016,31.8027166 38.5979661,31.5934037 L39.878134,31.2756731 C39.9325621,31.2623975 39.9905303,31.2690352 40.040976,31.294259 L40.7675696,31.6611096 L44.1686653,35.0623324 C44.2850442,35.1787156 44.4133707,35.2760704 44.5492198,35.3583795 C43.5885408,37.1293519 42.4035116,38.7613724 41.0224526,40.2124015 Z M46.0802881,25.0737295 L46.3975644,23.7939564 C46.6081969,23.6222579 46.7962616,23.471358 46.9759188,23.329751 L47.2560246,23.1089326 C47.2839025,23.572253 47.2989476,24.036901 47.2989476,24.5002212 C47.2989476,25.2294972 47.2622198,25.9614284 47.1927464,26.6907044 L46.4657103,25.963641 L46.0984308,25.2365776 C46.073208,25.1861301 46.0665704,25.1281598 46.0802881,25.0737295 Z M46.5484587,28.4497286 L48.6649615,30.5663105 C48.7614276,30.6623377 48.7508074,30.7711982 48.7362048,30.827841 C48.7216022,30.8840413 48.6773516,30.9844936 48.5468125,31.0216656 L47.6666695,31.2716904 C46.8905153,31.4916237 46.2957882,32.0863731 46.075863,32.8625564 L45.8258476,33.7427323 C45.7900047,33.8684085 45.6961935,33.9135457 45.6386678,33.929919 C45.6267202,33.9325741 45.6147726,33.9347867 45.6032674,33.9378844 C45.5430866,33.9471773 45.4523731,33.9427522 45.3705096,33.8608857 L43.2540068,31.7443037 C43.52128,31.5513642 43.7367801,31.2924888 43.8783818,30.9831662 L44.442576,29.7538404 C44.4660288,29.7029504 44.5071818,29.6617959 44.5585124,29.6383423 L45.787792,29.0741269 C46.0966608,28.9320774 46.3559689,28.7170119 46.5484587,28.4497286 Z M44.5762126,23.0646804 C44.6571911,23.0814963 44.7032117,23.1310588 44.7271069,23.1700007 C44.7514447,23.2085001 44.776225,23.2713381 44.7563123,23.3518771 L44.4310709,24.6643969 C44.3195596,25.1139991 44.3731027,25.588825 44.5815227,26.0021404 L45.0142929,26.8593052 C45.0151779,26.8610753 45.0160628,26.8628453 45.0169479,26.8646154 L45.191295,27.2097825 C45.2284654,27.2832411 45.2182878,27.3505045 45.2032426,27.393429 C45.1881975,27.4363536 45.1541245,27.495209 45.0788986,27.5297258 L43.849619,28.0934985 C43.4292389,28.2868805 43.0911649,28.6245247 42.8982326,29.045363 C42.8977901,29.045363 42.8977901,29.045363 42.8977901,29.045363 L42.3340383,30.2746887 C42.2995229,30.3499174 42.2411122,30.383549 42.1977467,30.3990373 C42.1548237,30.414083 42.0880054,30.4242611 42.014107,30.3866467 L41.6689529,30.2127356 C41.6671828,30.2118506 41.6658554,30.2109656 41.6640854,30.210523 L40.8065101,29.7772941 C40.5343693,29.6401124 40.2352358,29.5697514 39.9343322,29.5697514 C39.7785704,29.5697514 39.6223659,29.5887798 39.4692591,29.6263942 L38.1563459,29.9520902 C38.07581,29.9720037 38.0129742,29.9472225 37.9744762,29.9228838 C37.9359782,29.8989876 37.8859752,29.8529653 37.86916,29.7719839 L37.5930367,28.447516 C37.4983405,27.9943736 37.2439001,27.5899087 36.8766206,27.3080224 L35.8039878,26.4844891 C35.7380545,26.4340417 35.7181418,26.3694335 35.7132743,26.3238538 C35.7119467,26.3132333 35.7115042,26.3008426 35.7119467,26.287567 C35.7119467,26.2866819 35.7119467,26.2857969 35.7119467,26.2849119 C35.7137167,26.2441998 35.7265494,26.1946373 35.7659323,26.1477301 L36.6288177,25.1060337 C36.9239687,24.7493611 37.0819431,24.2984313 37.073093,23.8355535 L37.0478702,22.4832068 C37.0461002,22.4004552 37.0845982,22.3446975 37.116901,22.3123933 C37.1492039,22.2800892 37.2023045,22.2424749 37.287708,22.2433599 L38.6400042,22.2685836 C39.1055197,22.2778767 39.5537776,22.1194538 39.9104369,21.8242918 L40.9520943,20.9613742 C41.015815,20.9082716 41.0835184,20.9038464 41.1286539,20.9087141 C41.1737895,20.9135818 41.2388377,20.9334953 41.2888409,20.9989885 L42.1123432,22.072104 C42.394219,22.4393971 42.7986689,22.6938472 43.2517943,22.7885468 L44.5762126,23.0646804 Z M52.3386404,8.38844386 C49.8557432,11.3781214 46.1249811,15.5218958 42.2574849,19.5913266 C42.0105669,19.406795 41.7229385,19.2851015 41.4114148,19.2350965 L37.0624728,14.8855495 C37.3005407,14.5965826 37.5302009,14.3124837 37.7532236,14.0292697 L46.0440026,3.51052567 C46.2940181,3.19368004 46.6343047,3.00693588 47.0020266,2.98525223 C47.3706335,2.96312619 47.7299478,3.10871585 48.0153637,3.39414251 C48.0507641,3.42954426 48.0892621,3.46184833 48.1304151,3.49061222 C49.5681147,4.49159666 50.9474038,5.60852165 52.2293416,6.81041106 C52.6767144,7.22992165 52.7249475,7.92335339 52.3386404,8.38844386 Z" id="Shape"></path>
                </g>
            </g>
        </g>
    </g>
</svg>